<svg xmlns="http://www.w3.org/2000/svg" viewBox="0 0 100 100" role="img" aria-label="Deep RL agent for game environments">
  <defs>
    <linearGradient id="dr-bg" x1="0" y1="0" x2="0" y2="1">
      <stop offset="0%" stop-color="#3b2e8a"/>
      <stop offset="100%" stop-color="#1a1342"/>
    </linearGradient>
  </defs>

  <rect width="100" height="100" rx="22" fill="url(#dr-bg)"/>

  <g fill="#fef3c7" opacity="0.35">
    <circle cx="12" cy="20" r="0.7"/>
    <circle cx="88" cy="14" r="0.7"/>
    <circle cx="20" cy="88" r="0.7"/>
    <circle cx="82" cy="86" r="0.7"/>
    <circle cx="92" cy="46" r="0.7"/>
    <circle cx="8"  cy="62" r="0.7"/>
  </g>

  <g stroke="#fbbf24" stroke-width="1" opacity="0.55" stroke-linecap="round">
    <line x1="34" y1="14" x2="42" y2="22"/>
    <line x1="34" y1="14" x2="58" y2="22"/>
    <line x1="50" y1="9"  x2="42" y2="22"/>
    <line x1="50" y1="9"  x2="58" y2="22"/>
    <line x1="66" y1="14" x2="42" y2="22"/>
    <line x1="66" y1="14" x2="58" y2="22"/>
  </g>
  <g fill="#fbbf24">
    <circle cx="34" cy="14" r="2.3"/>
    <circle cx="50" cy="9"  r="2.3"/>
    <circle cx="66" cy="14" r="2.3"/>
    <circle cx="42" cy="22" r="2.3"/>
    <circle cx="58" cy="22" r="2.3"/>
  </g>

  <g stroke="#fbbf24" stroke-width="1.2" opacity="0.5" stroke-linecap="round" stroke-dasharray="1.6,2">
    <line x1="42" y1="25" x2="44" y2="33"/>
    <line x1="58" y1="25" x2="56" y2="33"/>
  </g>

  <g fill="#2dd4bf">
    <rect x="38" y="35" width="6" height="6"/>
    <rect x="44" y="35" width="6" height="6"/>
    <rect x="50" y="35" width="6" height="6"/>
    <rect x="56" y="35" width="6" height="6"/>

    <rect x="32" y="41" width="6" height="6"/>
    <rect x="38" y="41" width="6" height="6"/>
    <rect x="44" y="41" width="6" height="6"/>
    <rect x="50" y="41" width="6" height="6"/>
    <rect x="56" y="41" width="6" height="6"/>
    <rect x="62" y="41" width="6" height="6"/>

    <rect x="26" y="47" width="6" height="6"/>
    <rect x="32" y="47" width="6" height="6"/>
    <rect x="38" y="47" width="6" height="6"/>
    <rect x="44" y="47" width="6" height="6"/>
    <rect x="50" y="47" width="6" height="6"/>
    <rect x="56" y="47" width="6" height="6"/>
    <rect x="62" y="47" width="6" height="6"/>
    <rect x="68" y="47" width="6" height="6"/>

    <rect x="26" y="53" width="6" height="6"/>
    <rect x="32" y="53" width="6" height="6"/>
    <rect x="44" y="53" width="6" height="6"/>
    <rect x="50" y="53" width="6" height="6"/>
    <rect x="62" y="53" width="6" height="6"/>
    <rect x="68" y="53" width="6" height="6"/>

    <rect x="26" y="59" width="6" height="6"/>
    <rect x="32" y="59" width="6" height="6"/>
    <rect x="38" y="59" width="6" height="6"/>
    <rect x="44" y="59" width="6" height="6"/>
    <rect x="50" y="59" width="6" height="6"/>
    <rect x="56" y="59" width="6" height="6"/>
    <rect x="62" y="59" width="6" height="6"/>
    <rect x="68" y="59" width="6" height="6"/>

    <rect x="38" y="65" width="6" height="6"/>
    <rect x="56" y="65" width="6" height="6"/>

    <rect x="32" y="71" width="6" height="6"/>
    <rect x="44" y="71" width="6" height="6"/>
    <rect x="50" y="71" width="6" height="6"/>
    <rect x="62" y="71" width="6" height="6"/>

    <rect x="26" y="77" width="6" height="6"/>
    <rect x="38" y="77" width="6" height="6"/>
    <rect x="56" y="77" width="6" height="6"/>
    <rect x="68" y="77" width="6" height="6"/>
  </g>

  <g fill="#f472b6">
    <rect x="38" y="53" width="6" height="6"/>
    <rect x="56" y="53" width="6" height="6"/>
  </g>
</svg>
