<svg xmlns="http://www.w3.org/2000/svg" viewBox="0 0 100 100" role="img" aria-label="CHIP-8 Emulator">
  <defs>
    <linearGradient id="c8-screen" x1="0" y1="0" x2="0" y2="1">
      <stop offset="0%" stop-color="#0d2620"/>
      <stop offset="100%" stop-color="#04100d"/>
    </linearGradient>
    <radialGradient id="c8-glow" cx="0.5" cy="0.5" r="0.55">
      <stop offset="0%" stop-color="#6ee7d1" stop-opacity="0.32"/>
      <stop offset="100%" stop-color="#6ee7d1" stop-opacity="0"/>
    </radialGradient>
    <clipPath id="c8-clip">
      <rect width="100" height="100" rx="18"/>
    </clipPath>
  </defs>

  <g clip-path="url(#c8-clip)">
    <rect width="100" height="100" fill="url(#c8-screen)"/>
    <rect width="100" height="100" fill="url(#c8-glow)"/>

    <g fill="#6ee7d1">
      <rect x="20" y="29" width="6" height="6"/>
      <rect x="26" y="29" width="6" height="6"/>
      <rect x="32" y="29" width="6" height="6"/>
      <rect x="14" y="35" width="6" height="6"/>
      <rect x="38" y="35" width="6" height="6"/>
      <rect x="14" y="41" width="6" height="6"/>
      <rect x="14" y="47" width="6" height="6"/>
      <rect x="14" y="53" width="6" height="6"/>
      <rect x="14" y="59" width="6" height="6"/>
      <rect x="38" y="59" width="6" height="6"/>
      <rect x="20" y="65" width="6" height="6"/>
      <rect x="26" y="65" width="6" height="6"/>
      <rect x="32" y="65" width="6" height="6"/>

      <rect x="62" y="29" width="6" height="6"/>
      <rect x="68" y="29" width="6" height="6"/>
      <rect x="74" y="29" width="6" height="6"/>
      <rect x="56" y="35" width="6" height="6"/>
      <rect x="80" y="35" width="6" height="6"/>
      <rect x="56" y="41" width="6" height="6"/>
      <rect x="80" y="41" width="6" height="6"/>
      <rect x="62" y="47" width="6" height="6"/>
      <rect x="68" y="47" width="6" height="6"/>
      <rect x="74" y="47" width="6" height="6"/>
      <rect x="56" y="53" width="6" height="6"/>
      <rect x="80" y="53" width="6" height="6"/>
      <rect x="56" y="59" width="6" height="6"/>
      <rect x="80" y="59" width="6" height="6"/>
      <rect x="62" y="65" width="6" height="6"/>
      <rect x="68" y="65" width="6" height="6"/>
      <rect x="74" y="65" width="6" height="6"/>
    </g>

    <g stroke="#000" stroke-opacity="0.22" stroke-width="1">
      <line x1="0" y1="8"  x2="100" y2="8"/>
      <line x1="0" y1="14" x2="100" y2="14"/>
      <line x1="0" y1="20" x2="100" y2="20"/>
      <line x1="0" y1="26" x2="100" y2="26"/>
      <line x1="0" y1="32" x2="100" y2="32"/>
      <line x1="0" y1="38" x2="100" y2="38"/>
      <line x1="0" y1="44" x2="100" y2="44"/>
      <line x1="0" y1="50" x2="100" y2="50"/>
      <line x1="0" y1="56" x2="100" y2="56"/>
      <line x1="0" y1="62" x2="100" y2="62"/>
      <line x1="0" y1="68" x2="100" y2="68"/>
      <line x1="0" y1="74" x2="100" y2="74"/>
      <line x1="0" y1="80" x2="100" y2="80"/>
      <line x1="0" y1="86" x2="100" y2="86"/>
      <line x1="0" y1="92" x2="100" y2="92"/>
    </g>
  </g>
</svg>
